# xmcd
#
# Track frame offsets:
#	183
#	13120
#	24493
#	35888
#	51688
#	65888
#	75008
#	90000
#	106373
#	123233
#	138735
#	153543
#	165473
#	177728
#	185613
#	192373
#	204358
#	221040
#	234545
#	247270
#
# Disc length: 3499 seconds
# Revision: 0
# Processed by: cddbd v1.5.2PL0 Copyright (c) Steve Scherf et al.
# Submitted via: dBpowerAMP V12.0
#
DISCID=240da914
DTITLE=The Fireside Singers - All Time Sing Along Favorites Disc 3
DYEAR=1900
DGENRE=Sing A Long
TTITLE0=Mother
TTITLE1=Memories
TTITLE2=Drink To Me Only With Thine Eyes
TTITLE3=Danny Boy
TTITLE4=I'll Take You Home Again Kathleen
TTITLE5=Listen To The Mockingbird
TTITLE6=Carry Me Back To Old Virginny
TTITLE7=Believe Me  If All Those Endearing Young Charms
TTITLE8=Beautiful Dreamer and Old Folks at Home and Jeanie With The Light Brown Hair
TTITLE9=Flow Gently Sweet Afton
TTITLE10=Sweet and Low
TTITLE11=While Strolling Through The Park One Day and Elsie From Chelsea
TTITLE12=The Gang That Sang Heart Of My Heart and Hello Ma Baby
TTITLE13=Down By The Old Mill Stream
TTITLE14=When You Wore A Tulip
TTITLE15=Let Me Call You Sweetheart
TTITLE16=When You Were Sweet Sixteen
TTITLE17=In The Evening By The Moonlight
TTITLE18=In My Merry Olsmobile and Love's Old Sweet Song
TTITLE19=Goodbye My Coney Island Baby
EXTD=
EXTT0=
EXTT1=
EXTT2=
EXTT3=
EXTT4=
EXTT5=
EXTT6=
EXTT7=
EXTT8=
EXTT9=
EXTT10=
EXTT11=
EXTT12=
EXTT13=
EXTT14=
EXTT15=
EXTT16=
EXTT17=
EXTT18=
EXTT19=
PLAYORDER=
